<svg xmlns="http://www.w3.org/2000/svg" viewBox="0 0 208.56 210.05"><defs><style>.cls-1{fill:#abd050;}.cls-2{fill:#fff;fill-rule:evenodd;}</style></defs><title>grullaRecurso 2</title><g id="Capa_2" data-name="Capa 2"><g id="Capa_1-2" data-name="Capa 1"><path class="cls-1" d="M208.56,105c0,58-46.69,105-104.28,105S0,163,0,105,46.69,0,104.28,0,208.56,47,208.56,105"/><path class="cls-2" d="M162.94,33.5c-.2,3.76-.35,7.1-.54,10.44q-1.52,26.93-3.08,53.83a2.67,2.67,0,0,0,1.22,2.58q14.34,11.06,28.62,22.16a3.35,3.35,0,0,1,1.12,1.36l-27.77-8.16-25.62,47.66c-5.92-3.38-11.77-6.76-17.69-10a5,5,0,0,0-3-.57q-23.48,3.49-46.91,7.12-17.46,2.66-34.91,5.34c-1,.16-2.06.46-3.63.83l38.89-39.29-51.39-58a3.58,3.58,0,0,0,.27-.29L90.81,122a40.57,40.57,0,0,0,3.54-2.74,3.34,3.34,0,0,0,.75-1.94c.77-7.42,1.47-14.84,2.25-22.25a3.49,3.49,0,0,1,1-2Q130.13,63.6,162,34.28c.18-.16.38-.31,1-.78m-39.41,83.09c12-25.94,24-51.7,35.93-77.47a2.1,2.1,0,0,0-1.18.6q-29.29,27-58.54,54a3.23,3.23,0,0,0-.92,1.88c-.53,4.61-1,9.24-1.43,13.86-.25,2.52-.49,5.05-.77,8,.92-.63,1.54-1,2.11-1.46,3.24-2.46,6.5-4.89,9.67-7.43,1.15-.91,1.95-1.07,3.25-.13,3.84,2.78,7.81,5.39,11.88,8.16m37.53-76.36-.46,0-35.82,77.26,10.79,7.35c3.35-4.11,6.53-8.14,9.85-12.06,3.5-4.12,6.28-8.93,11.4-11.62a2.57,2.57,0,0,0,.85-1.85c.39-5.55.7-11.1,1-16.66q.88-15.65,1.78-31.3c.21-3.7.39-7.39.59-11.09m-48.44,97c-7.49-3.32-14.44-6.42-21.41-9.46a5.52,5.52,0,0,0-2-.3c-5.51,0-11-.06-16.55,0A4.1,4.1,0,0,0,70,128.61Q53.66,145,37.41,161.46c-.31.3-.55.68-1.13,1.39l76.34-25.59m18.51,8.05c-5.43-2.36-10.5-4.6-15.62-6.73a3.69,3.69,0,0,0-2.32,0q-34.27,11.43-68.51,22.94a9.88,9.88,0,0,0-1.15.52c4.46-.42,8.84-1.05,13.21-1.71,19.89-3,39.75-6.24,59.68-9,5.51-.76,10-3.12,14.71-6M89.5,122.83,29.21,78.22a1.25,1.25,0,0,0,.35,1.06q20.31,22.93,40.66,45.84a3.15,3.15,0,0,0,2.07.88c3.3.09,6.62-.2,9.89.11s5.21-1.28,7.32-3.28m62.58-15-.52-.13c-.21.22-.43.42-.62.65q-11,13.55-22.1,27.07c-.7.86-.32,1.37.1,2.09,2.17,3.75,5,7.15,5.61,11.67.42,3.21,1.34,6.37,2.14,10.05.36-.92.54-1.31.66-1.7q6.87-22,13.68-44a47.24,47.24,0,0,0,1.05-5.72m-36.24,29.3-6.28-27.51-20.87,15.9c2.33.9,4.66,1.71,6.91,2.68,6.63,2.88,13.23,5.83,20.24,8.93m67.23-16.85.24-.38L159.38,101.3a17,17,0,0,1-1.87,1.18c-3.24,1.47-4.5,3.87-4.3,7.31.07,1.28.33,1.81,1.57,2.16,5.94,1.7,11.87,3.47,17.79,5.2l10.5,3.08m-30.25-7.36-12.49,40,.42.15c6.72-12.52,13.46-25,20.29-37.76l-8.22-2.41M134.62,126,113.3,111.4l-.26.3c4.72,7.65,9.44,15.3,14.31,23.16l7.27-8.91m-4.37,17.37.36-.33-18.22-29.5c1.42,7.93,3.17,15.71,5,23.48a1.8,1.8,0,0,0,.84,1.1c4,1.78,8,3.51,12,5.25m-9.33,9.26,14.58,8.31c-1.09-5-2.09-9.65-3.1-14.37l-11.48,6.06"/></g></g></svg>